<svg id="Capa_1" enable-background="new 0 0 503.443 503.443" height="512" viewBox="0 0 503.443 503.443" width="512" xmlns="http://www.w3.org/2000/svg"><g><g><path d="m469.345 392.574c4.297-3.631 9.112-8.462 13.582-14.654 10.759-14.908 21.734-40.966 12.918-80.452-8.717-39.039-27.976-59.161-42.598-69.167-8.65-5.92-16.69-9.114-22.51-10.824-.234-5.955-1.023-14.293-3.311-22.838-5.129-19.155-15.948-31.874-30.909-36.682-.329-10.169-2.583-19.271-4.429-25.136-1.939-6.16-9.153-26.562-20.568-30.489-11.422-3.932-29.656 7.715-34.975 11.376-.114.079-.24.17-.357.251-6.229-14.085-14.997-23.566-26.16-28.239-12.165-5.09-26.46-4.107-42.57 2.895-2.311-4.952-5.568-9.58-10.138-13.556-6.094-20.205-15.158-42.188-27.664-67.08-2.63-5.817-8.952-9.031-15.241-7.669-6.223 1.347-10.628 6.791-10.705 13.094-1.702 25.032-1.143 42.865 1.821 57.12-5.355 15.201-4.336 30.085 3.045 44.287.304.585.673 1.11 1.068 1.607-.019.095-.038.19-.057.285-1.758-.073-3.516-.063-5.267.037-.48-1.044-1.139-2.027-1.998-2.888-16.876-16.906-44.031-27.516-55.88-21.823-10.812 5.192-15.572 26.115-16.773 32.403-1.963 10.276-4.023 30.08 4.227 47.263 1.363 2.838 2.24 4.12 3.423 5.75.201.277.435.604.691.968-2.456 2.002-5.051 3.815-7.782 5.393-6.112 3.529-9.381 10.072-8.532 17.077.586 4.833 3.022 8.983 6.702 11.741-1.208 2.597-1.462 3.826-2.369 6.338-7.605 20.914-12.023 47.396-13.441 56.807-24.643 24.853-33.184 58.787-22.262 89.371 8.612 24.112 25.327 42.672 49.681 55.164 15.883 8.147 37.913 11.871 54.889 12.673-5.877 18.098-9.599 39.543-12.511 58.981-.818 5.462 2.946 10.553 8.408 11.371.502.075 1.001.112 1.494.112 4.868 0 9.134-3.56 9.877-8.52 2.693-17.976 6.084-37.665 11.185-53.983 4.334 6.811 10.663 11.086 17.951 12.075 2.172.294 5.015.47 8.024.656 2.688.167 7.155.443 8.412.764 21.354 8.6 44.569 15.529 79.693 26.013l8.151 2.434c.573.171 1.151.252 1.72.252 2.584 0 4.97-1.682 5.747-4.284.948-3.175-.857-6.517-4.031-7.467l-8.154-2.435c-25.261-7.54-44.303-13.224-60.814-18.983l12.295-38.426c.025-.078.041-.157.062-.235 17.303 3.455 38.453 9.798 60.681 16.465l8.228 2.464c3.18.95 6.518-.856 7.467-4.03.948-3.175-.857-6.518-4.031-7.467l-8.215-2.461c-23.68-7.103-46.156-13.845-64.569-17.279-.045-8.07-.314-15.136-1.934-20.989-2.537-9.167-8.284-14.276-17.081-15.182-6.356-.656-11.197.575-14.792 3.762-4.877 4.325-6.295 11.36-6.708 18.784-.45.011-.994.013-1.65-.002-15.058-.363-27.833 11.079-31.129 27.521-.027.003-.053 0-.079.002-14.057 1.224-42.541-1.705-59.457-10.382-19.68-10.094-33.129-24.93-39.974-44.095-8.579-24.02-1.032-51.063 19.695-70.575 1.673-1.575 2.753-3.68 3.058-5.958.044-.325 4.448-32.808 12.912-56.083 1.131-3.029.89-3.266 2.611-6.578 22.041 6.059 37.244 9.255 45.278 9.511.766.024 1.527.037 2.289.036 22.872 0 43.782-10.952 56.278-29.598.232-.347.445-.705.668-1.056 20.091-2.919 39.429-13.239 38.77-27.843-.195-2.25-.337-4.507-.523-6.721 7.366.15 14.676 1.177 21.754 3.082 5.247 1.413 10.669-1.628 12.197-6.847.298-1.018.562-1.856.829-2.634 6.595-19.165 31.319-33.795 39.888-35.48 5.717 6.601 16.203 33.347 9.608 52.512-2.372 6.893-5.673 12.524-9.812 16.735-3.332 3.392-3.816 8.661-1.157 12.602 10.082 14.943 15.419 32.409 15.436 50.514l-1.07 58.064c-.001.061-.002.123-.002.184 0 26.038-2.739 44.908-9.159 63.099-1.409 3.992-.152 8.438 3.139 11.101 27.444 22.212 49.893 61.139 63.209 109.608 1.22 4.439 5.246 7.353 9.637 7.353.877 0 1.769-.116 2.655-.36 1.808-.497 3.354-1.467 4.562-2.729 7.974-5.572 38.225-28.891 38.225-61.985.001-22.413-11.255-37.247-20.792-45.793zm-249.221 24.507c1.58-11.65 9.713-19.975 19.396-19.715 3.234.076 9.254.218 12.591-4.232.758-1.01 1.178-2.234 1.199-3.496.135-7.802 1.081-12.536 2.813-14.072.926-.82 2.812-1.09 5.6-.804 7.171.739 8.254 7.228 8.254 29.154 0 .023-.001.109-.001.133 0 1.268.414 2.441 1.096 3.419-.055.136-.111.272-.156.415l-12.151 37.978c-2.218-.843-4.404-1.696-6.564-2.567-2.168-.904-5.389-1.184-12.131-1.602-2.662-.164-5.415-.335-7.153-.571-3.925-.532-7.429-3.129-9.864-7.312-2.719-4.666-3.759-10.607-2.929-16.728zm57.852-255.071-19.444-5.73c-3.629-13.98-12.529-25.6-25.196-32.798-3.497-1.987-7.147-3.526-10.879-4.639.229-.133.454-.27.668-.417l41.122 13.76c.448.15.901.225 1.352.267 6.829 7.931 10.912 17.683 12.377 29.557zm-36.701-74.332c.45.473.931.917 1.459 1.302 6.701 4.886 9.729 12.807 10.048 26.716l-25.853-8.651c-.165-.493-.357-.98-.604-1.456-4.129-7.946-5.184-15.724-3.212-24.053zm-5.544-14.543-9.904-3.349c-.051-.288-.103-.577-.163-.863-2.077-8.605-2.814-18.826-2.895-28.833 5.197 11.683 9.494 22.644 12.962 33.045zm-80.362 37.246c4.777.3 16.435 4.254 26.979 12.468-6.466 3.415-12.299 8.192-16.993 14.253-3.272 4.225-5.877 8.868-7.742 13.8-1.575 4.165-3.541 8.111-5.836 11.798-8.422-18.056-1.218-45.311 3.592-52.319zm85.945 82.108c-10.593 15.808-28.633 24.882-48.216 24.248-6.835.121-32.603-5.987-55.68-12.822-3.139-.911-3.706-3.655-3.806-4.474-.099-.817-.203-3.611 2.62-5.241 6.058-3.498 11.573-7.918 16.419-13.058 1.017-.778 1.847-1.713 2.476-2.754 5.777-6.764 10.452-14.622 13.711-23.241 1.443-3.816 3.463-7.415 6.004-10.696 5.037-6.504 11.763-11.113 19.153-13.62 2.421-.771 4.931-1.369 6.956-1.708 8.876-1.382 18.217.111 26.456 4.794 10.089 5.733 17.105 15.071 19.753 26.294 2.614 11.069.483 22.834-5.846 32.278zm16.763-7.853c1.462-4.975 2.185-10.148 2.156-15.344l17.121 5.045c-2.868 3.752-9.963 7.819-19.277 10.299zm50.149-39.326c-6.545-1.19-13.203-1.792-19.887-1.792-.69.014-1.858-.004-2.533.08-2.991-8.033-7.37-15.123-13.13-21.209.061-.417.106-.838.114-1.271.078-4.069.02-8.392-.382-12.777 12.257-5.944 22.306-7.35 29.9-4.172 7.537 3.155 13.536 11.117 17.859 23.676-4.509 4.91-8.814 10.758-11.941 17.465zm141.758 330.864c-10.686-33.181-29.118-72.98-60.237-100.722 5.66-18.396 8.118-37.723 8.124-63.075l1.07-58.071c.001-.062.002-.123.002-.185 0-19.579-5.1-38.555-14.812-55.328 3.802-5.203 6.903-11.264 9.257-18.104.234-.68.449-1.363.654-2.047 18.608 10.376 16.743 45.857 16.72 46.247-.343 5.393 3.581 10.073 8.96 10.581 1.75.194 43.008 5.454 56.605 66.355 13.463 60.294-26.984 80.735-28.656 81.549-3.485 1.639-5.746 5.122-5.77 8.973-.024 3.852 2.139 7.361 5.604 9.044.924.463 22.635 11.632 22.635 36.976-.002 15.936-11.243 29.529-20.156 37.807z"/><path d="m163.94 286.22c0 6.815 5.524 12.339 12.339 12.339s12.339-5.524 12.339-12.339-5.525-12.339-12.339-12.339-12.339 5.524-12.339 12.339z"/><path d="m301.449 273.88c-6.815 0-12.339 5.524-12.339 12.339s5.524 12.339 12.339 12.339 12.339-5.524 12.339-12.339c0-6.814-5.524-12.339-12.339-12.339z"/><path d="m201.422 137.117c-1.673.467-16.604 5.092-25.596 23.329-2.443 4.954-.407 10.949 4.546 13.392 1.422.701 2.93 1.034 4.415 1.034 3.688 0 7.235-2.048 8.976-5.579 5.053-10.248 12.88-12.856 13.211-12.962l-.171.05c13.421-3.751 8.04-23.014-5.381-19.264z"/><path d="m250.96 308.733c-.017 0-.033 0-.05 0l-33.659.091c-6.254.017-11.911 3.237-15.132 8.614-3.183 5.313-3.356 11.734-.463 17.175 6.64 12.489 19.068 20.236 32.455 20.235h.093c13.421-.036 25.851-7.856 32.439-20.41 2.864-5.457 2.656-11.876-.555-17.173-3.241-5.345-8.894-8.532-15.128-8.532zm5.058 20.129c-4.515 8.603-12.886 13.962-21.846 13.986-.02 0-.041 0-.061 0-8.938 0-17.309-5.31-21.86-13.869-1.298-2.441-.319-4.572.162-5.375.499-.833 1.973-2.773 4.87-2.781l33.66-.091h.017c2.886 0 4.365 1.925 4.867 2.754.485.801 1.475 2.927.191 5.376z"/></g><path d="m463.531 36.285 8.215 23.098c.352.989 1.048 1.772 1.927 2.168l20.521 9.246c2.899 1.306 2.899 5.925 0 7.232l-20.521 9.246c-.879.396-1.575 1.179-1.927 2.169l-8.215 23.097c-1.16 3.263-5.264 3.263-6.425 0l-8.214-23.097c-.352-.989-1.048-1.773-1.927-2.169l-20.521-9.246c-2.899-1.306-2.899-5.925 0-7.232l20.521-9.246c.879-.396 1.575-1.18 1.927-2.168l8.214-23.098c1.16-3.263 5.264-3.263 6.425 0z"/><path d="m73.537 38.957 6.093 17.133c.261.734.777 1.315 1.429 1.608l15.222 6.858c2.151.969 2.151 4.395 0 5.364l-15.222 6.858c-.652.294-1.168.875-1.429 1.608l-6.093 17.133c-.861 2.421-3.905 2.421-4.766 0l-6.093-17.133c-.261-.734-.777-1.315-1.429-1.608l-15.222-6.858c-2.151-.969-2.151-4.395 0-5.364l15.222-6.858c.652-.294 1.168-.875 1.429-1.608l6.093-17.133c.86-2.421 3.905-2.421 4.766 0z"/><path d="m396.872 11.051c0 5.228-4.238 9.466-9.466 9.466s-9.466-4.238-9.466-9.466 4.238-9.466 9.466-9.466c5.228.001 9.466 4.239 9.466 9.466z"/><circle cx="16.57" cy="145.528" r="12.187"/></g></svg>