<svg id="Capa_1" enable-background="new 0 0 512 512" height="512" viewBox="0 0 512 512" width="512" xmlns="http://www.w3.org/2000/svg"><g><g><path d="m183.938 177.843c-1.511 0-3.044-.338-4.49-1.051-5.038-2.484-7.108-8.581-4.624-13.619 9.146-18.548 24.33-23.251 26.031-23.727 0 0 10.559-2.857 12.978 7.184s-7.332 12.355-7.332 12.355c-.336.108-8.296 2.761-13.436 13.183-1.769 3.591-5.377 5.674-9.127 5.675z"/><path d="m476.969 54.657 8.354 23.49c.358 1.006 1.066 1.803 1.959 2.205l20.87 9.403c2.948 1.328 2.948 6.026 0 7.355l-20.87 9.403c-.894.403-1.602 1.2-1.959 2.205l-8.354 23.49c-1.18 3.319-5.354 3.319-6.534 0l-8.354-23.49c-.358-1.006-1.066-1.803-1.959-2.205l-20.87-9.403c-2.948-1.328-2.948-6.026 0-7.355l20.87-9.403c.894-.403 1.602-1.2 1.959-2.205l8.354-23.49c1.18-3.319 5.354-3.319 6.534 0z"/><path d="m76.281 2.029 6.197 17.425c.265.746.791 1.337 1.453 1.636l15.481 6.975c2.187.985 2.187 4.47 0 5.455l-15.481 6.975c-.663.299-1.188.89-1.453 1.636l-6.197 17.425c-.875 2.462-3.971 2.462-4.847 0l-6.197-17.425c-.265-.746-.79-1.337-1.453-1.636l-15.482-6.975c-2.187-.985-2.187-4.47 0-5.455l15.481-6.975c.663-.299 1.188-.89 1.453-1.636l6.197-17.425c.876-2.462 3.972-2.462 4.848 0z"/><circle cx="369.435" cy="35.235" r="12.395"/><path d="m25.827 112.256c0 5.317-4.31 9.627-9.627 9.627s-9.627-4.31-9.627-9.627c0-5.316 4.31-9.627 9.627-9.627 5.317.001 9.627 4.311 9.627 9.627z"/></g><g><path d="m473.332 399.246c4.37-3.693 9.268-8.606 13.813-14.903 10.942-15.161 22.104-41.663 13.138-81.819-8.865-39.703-28.452-60.167-43.322-70.343-8.797-6.02-16.974-9.269-22.892-11.008-.589-14.571-4.514-43.215-25.46-56.246-2.929-1.822-6.047-3.249-9.344-4.299-.336-10.336-2.627-19.587-4.504-25.549-1.972-6.264-9.309-27.014-20.918-31.008-11.612-3.999-30.16 7.846-35.569 11.57-.113.078-.239.169-.354.249-5.381-12.168-12.649-20.976-21.758-26.293-13.337-7.783-29.485-7.587-48.147.531-2.351-5.038-5.663-9.748-10.312-13.794-6.198-20.549-15.417-42.906-28.135-68.221-2.674-5.914-9.104-9.178-15.497-7.798-6.33 1.369-10.811 6.906-10.889 13.317-1.73 25.458-1.161 43.595 1.852 58.091-5.446 15.459-4.409 30.596 3.096 45.039.309.594.684 1.128 1.085 1.633-.019.097-.034.194-.053.291-1.355-.057-2.71-.068-4.062-.023-8.141-8.612-17.591-14.506-23.775-17.779-5.755-3.046-25.386-12.569-36.385-7.292-10.996 5.281-15.837 26.559-17.058 32.955-1.996 10.451-4.092 30.591 4.299 48.067 1.196 2.491 2.492 4.848 3.876 7.083-2.407 1.937-4.943 3.696-7.606 5.234v-.001c-6.216 3.589-9.54 10.243-8.677 17.366.604 4.98 3.143 9.243 6.967 12.047-.939 2.127-1.799 4.245-2.561 6.341-7.734 21.27-12.227 48.201-13.669 57.772-25.062 25.275-33.748 59.785-22.64 90.889 8.758 24.522 25.757 43.398 50.525 56.102 16.154 8.285 38.558 12.073 55.822 12.889-5.978 18.406-9.761 40.214-12.723 59.984-.832 5.555 2.996 10.732 8.551 11.564 5.551.832 10.732-2.996 11.564-8.551 3.58-23.898 8.361-50.795 16.676-69.086 1.496-3.291 1.133-7.128-.954-10.08-2.087-2.951-5.583-4.575-9.185-4.26-14.299 1.242-43.263-1.734-60.467-10.559-20.014-10.266-33.692-25.354-40.653-44.845-8.724-24.428-1.049-51.931 20.03-71.774 1.702-1.602 2.801-3.743 3.11-6.061.044-.331 4.505-33.315 13.131-57.035.566-1.556 1.475-3.855 2.77-6.659 22.353 6.142 37.776 9.382 45.933 9.641.779.025 1.553.037 2.327.037 23.26-.001 44.527-11.138 57.235-30.1.241-.359.461-.73.693-1.095 1.697-.246 3.377-.525 5.005-.867 16.394-3.437 35.116-12.679 34.412-27.453-.205-2.276-.341-4.569-.533-6.811 7.491.153 14.925 1.197 22.124 3.135 5.339 1.438 10.853-1.658 12.405-6.967.301-1.029.569-1.88.842-2.675 6.707-19.491 31.852-34.369 40.566-36.084 5.814 6.713 16.479 33.914 9.772 53.405-2.412 7.01-5.769 12.736-9.978 17.019-3.39 3.449-3.882 8.808-1.177 12.817 10.253 15.197 15.681 32.959 15.699 51.371l-1.09 59.052c-.001.063-.001.125-.001.188 0 26.48-2.786 45.672-9.315 64.172-1.433 4.06-.155 8.581 3.192 11.29 27.912 22.591 50.742 62.178 64.284 111.471 1.24 4.514 5.335 7.478 9.8 7.478.892 0 1.799-.118 2.7-.366 1.84-.505 3.414-1.493 4.643-2.778 8.114-5.67 38.872-29.384 38.872-63.036.001-22.794-11.446-37.881-21.146-46.572zm-237.585-324.869-10.072-3.406c-.052-.294-.105-.587-.165-.878-2.111-8.75-2.862-19.146-2.943-29.323 5.284 11.881 9.653 23.028 13.18 33.607zm-12.832 8.544 18.471 6.246c.458.481.947.933 1.483 1.324 6.815 4.97 9.894 13.024 10.219 27.17l-26.293-8.798c-.167-.501-.363-.997-.614-1.48-4.199-8.081-5.272-15.992-3.266-24.462zm-68.963 29.433c5.346.449 17.147 4.978 27.558 12.553-6.598 3.475-12.55 8.343-17.337 14.524-3.327 4.296-5.975 9.018-7.872 14.034-1.602 4.235-3.602 8.249-5.935 11.999-8.525-18.279-1.305-45.829 3.586-53.11zm87.473 83.406c-10.773 16.076-29.122 25.291-49.036 24.66-8.466-.27-28.576-4.901-56.627-13.04-3.193-.927-3.77-3.717-3.871-4.551-.101-.831-.207-3.672 2.664-5.329v-.001c14.967-8.642 26.744-22.747 33.161-39.717 1.467-3.881 3.522-7.541 6.106-10.878 8.095-10.453 20.477-16.09 33.038-16.09 6.987 0 14.031 1.745 20.421 5.376 10.26 5.83 17.395 15.327 20.089 26.741 2.659 11.259.492 23.224-5.945 32.829zm17.054-8.004c1.484-5.054 2.216-10.31 2.187-15.589l17.385 5.123c-2.878 3.73-9.903 7.883-19.572 10.466zm.456-28.821c-3.69-14.218-12.741-26.034-25.623-33.355-3.559-2.022-7.275-3.589-11.074-4.721.232-.137.47-.269.689-.421l41.822 13.994c.455.152.915.229 1.373.272 6.947 8.066 11.099 17.983 12.588 30.059zm50.539-11.156c-6.656-1.211-13.427-1.822-20.224-1.822h-2.61c-3.043-8.134-7.482-15.32-13.319-21.488.062-.424.108-.853.116-1.293.079-4.132.018-8.52-.389-12.972 13.757-6.69 24.789-7.744 32.851-3.047 7.267 4.234 12.313 12.767 15.771 22.807-4.604 5.005-9.004 10.97-12.196 17.815zm144.168 336.488c-10.867-33.744-29.612-74.22-61.261-102.434 5.757-18.709 8.256-38.367 8.262-64.149l1.09-59.055c.001-.063.001-.125.001-.188 0-19.912-5.187-39.21-15.065-56.269 3.867-5.293 7.021-11.456 9.415-18.411.249-.724.477-1.452.693-2.18.356.191.712.382 1.057.596 14.792 9.166 16.505 36.713 15.918 46.536-.348 5.484 3.723 10.252 9.194 10.768.434.041 43.497 4.816 57.487 67.475 13.691 61.319-27.444 82.107-29.143 82.935-3.545 1.667-5.816 5.222-5.841 9.139-.024 3.917 2.203 7.5 5.727 9.212.229.111 22.964 11.457 22.964 37.578-.001 16.205-11.434 30.028-20.498 38.447z"/><path d="m187.834 297.186c-3.37 0-6.102-2.732-6.102-6.102 0-3.555-2.892-6.447-6.447-6.447s-6.447 2.892-6.447 6.447c0 3.37-2.732 6.102-6.102 6.102s-6.102-2.732-6.102-6.102c0-10.284 8.367-18.651 18.651-18.651s18.651 8.367 18.651 18.651c0 3.37-2.732 6.102-6.102 6.102z"/><path d="m315.132 297.186c-3.37 0-6.102-2.732-6.102-6.102 0-3.555-2.892-6.447-6.447-6.447s-6.447 2.892-6.447 6.447c0 3.37-2.732 6.102-6.102 6.102s-6.102-2.732-6.102-6.102c0-10.284 8.367-18.651 18.651-18.651s18.651 8.367 18.651 18.651c0 3.37-2.733 6.102-6.102 6.102z"/><path d="m211.084 375.189c-10.284 0-18.651-8.367-18.651-18.651 0-4.853 1.863-9.279 4.911-12.6-3.048-3.321-4.911-7.747-4.911-12.6 0-10.284 8.367-18.651 18.651-18.651 3.37 0 6.102 2.732 6.102 6.102s-2.732 6.102-6.102 6.102c-3.555 0-6.447 2.892-6.447 6.447s2.892 6.447 6.447 6.447c3.37 0 6.102 2.732 6.102 6.102s-2.732 6.203-6.102 6.203c-3.555 0-6.447 2.892-6.447 6.447s2.892 6.447 6.447 6.447c3.37 0 6.102 2.732 6.102 6.102 0 3.371-2.733 6.103-6.102 6.103z"/><path d="m303.501 371.816c-20.691 0-37.525-14.223-37.525-31.706s16.834-31.706 37.525-31.706c20.692 0 37.525 14.224 37.525 31.706 0 17.483-16.833 31.706-37.525 31.706zm0-51.208c-13.962 0-25.321 8.749-25.321 19.502s11.359 19.502 25.321 19.502 25.321-8.748 25.321-19.502-11.359-19.502-25.321-19.502z"/><path d="m143.257 371.816c-20.691 0-37.525-14.223-37.525-31.706s16.834-31.706 37.525-31.706c20.692 0 37.525 14.224 37.525 31.706 0 17.483-16.833 31.706-37.525 31.706zm0-51.208c-13.962 0-25.321 8.749-25.321 19.502s11.359 19.502 25.321 19.502 25.321-8.748 25.321-19.502-11.359-19.502-25.321-19.502z"/><path d="m60.857 275.209c-10.444 0-24.5-9.203-30.517-13.52-9.926-7.122-26.707-21.519-28.326-38.357-2.453-15.267 7.264-30.103 22.31-33.917 6.642-1.685 13.555-.976 19.61 1.711 4.044-5.247 9.783-9.162 16.426-10.847 15.451-3.916 31.156 4.812 36.02 19.914 6.028 14.84-1.711 34.668-6.91 45.247-3.029 6.164-13.789 26.496-25.061 29.354-1.119.285-2.31.415-3.552.415zm-29.172-66.372c-.787 0-1.58.096-2.362.294-4.924 1.248-8.086 6.137-7.2 11.131.058.327.1.656.126.987.331 4.25 4.808 12.055 16.378 21.221 8.502 6.735 16.841 10.899 20.695 12.09 2.912-2.882 8.512-10.568 13.109-20.655 6.205-13.616 6.601-22.613 5.055-26.182-.157-.361-.292-.731-.406-1.108-1.507-4.996-6.65-7.903-11.72-6.62-3.88.984-6.807 4.317-7.283 8.294-.5 4.177-3.521 7.615-7.599 8.648-4.077 1.034-8.371-.55-10.801-3.985-1.848-2.609-4.873-4.115-7.992-4.115z"/></g></g></svg>